<?xml version="1.0" encoding="UTF-8"?>
<svg width="30px" height="30px" viewBox="0 0 30 30" version="1.1" xmlns="http://www.w3.org/2000/svg" xmlns:xlink="http://www.w3.org/1999/xlink">
    <!-- Generator: Sketch 59.1 (86144) - https://sketch.com -->
    <title>Header/Mobile/User_Inactive_Focused</title>
    <desc>Created with Sketch.</desc>
    <g id="Page-1" stroke="none" stroke-width="1" fill="none" fill-rule="evenodd">
        <g id="Common-Comps---Desktop" transform="translate(-510.000000, -79.000000)" fill="#FFFFFF">
            <g id="Header" transform="translate(29.000000, 67.000000)">
                <g id="Header/Mobile/User_Inactive_Focused" transform="translate(481.000000, 12.000000)">
                    <path d="M15,1.5 C22.4436545,1.5 28.5,7.55634545 28.5,15 C28.5,18.9518182 26.7931091,22.5118909 24.0783818,24.9821455 L24.0783818,24.9821455 L24.0916364,24.9934364 L23.6424545,25.3684909 C23.5977818,25.4062909 23.5486909,25.4382 23.5030364,25.4750182 C23.2973455,25.6424182 23.0857636,25.8024545 22.8702545,25.9575818 C22.7804182,26.0223818 22.6915636,26.0876727 22.6007455,26.1495273 C22.3484182,26.3223273 22.0887273,26.4848182 21.8246182,26.6404364 C21.7529455,26.6826545 21.6812727,26.7238909 21.6091091,26.7646364 C21.3189818,26.9281091 21.0229636,27.0817636 20.7200727,27.2241273 C20.6827636,27.2418 20.6449636,27.258 20.6076545,27.2751818 C19.5954,27.7395818 18.5163818,28.0817455 17.3887636,28.284 L17.3887636,28.284 L17.2969636,28.3006909 C16.9449818,28.3610727 16.5885818,28.4086909 16.2277636,28.4415818 C16.1821091,28.4455091 16.1364545,28.4479636 16.0908,28.4518909 C15.7304727,28.4808545 15.3676909,28.5 15,28.5 C14.6288727,28.5 14.2626545,28.4808545 13.9003636,28.4509091 C13.8556909,28.4469818 13.8115091,28.4445273 13.7673273,28.4406 C13.4035636,28.4077091 13.0442182,28.3586182 12.6888,28.2972545 L12.6888,28.2972545 L12.5984727,28.2810545 C11.4536727,28.0743818 10.3589455,27.7243636 9.33343636,27.2476909 C9.31036364,27.2368909 9.2868,27.2270727 9.26372727,27.2162727 C8.94905455,27.0680182 8.64174545,26.9065091 8.34081818,26.7351818 L8.34081818,26.7351818 L8.16016364,26.6311091 C7.88525455,26.4686182 7.61623636,26.2972909 7.35409091,26.1166364 C7.27309091,26.0606727 7.19356364,26.0032364 7.11403636,25.9458 C6.86858182,25.7685818 6.62754545,25.5854727 6.39485455,25.3925455 C6.36638182,25.3689818 6.33545455,25.3493455 6.30698182,25.3252909 L6.30698182,25.3252909 L5.86909091,24.9561273 L5.88185455,24.9448364 C3.19069091,22.4755636 1.5,18.9316909 1.5,15 C1.5,7.55634545 7.55634545,1.5 15,1.5 Z M22.3435091,25.1284364 C22.1716909,25.2531273 21.9969273,25.3738909 21.8197091,25.4892545 C21.7382182,25.5422727 21.6572182,25.5952909 21.5742545,25.6468364 C21.3425455,25.7901818 21.1069091,25.9266545 20.8663636,26.0542909 C20.8133455,26.0822727 20.7598364,26.1087818 20.7063273,26.1362727 C20.1535636,26.4195273 19.5816545,26.6630182 18.9940364,26.8608545 C18.9734182,26.8677273 18.9528,26.8750909 18.9316909,26.8819636 C18.6238909,26.9840727 18.3121636,27.0748909 17.997,27.1529455 C17.9960182,27.1529455 17.9950364,27.1534364 17.9940545,27.1534364 C17.6759455,27.2319818 17.3539091,27.2972727 17.0299091,27.3507818 C17.0210727,27.3522545 17.0122364,27.3542182 17.0034,27.3556909 C16.6985455,27.4052727 16.3912364,27.4411091 16.0829455,27.4681091 C16.0284545,27.4730182 15.9739636,27.4764545 15.9189818,27.4803818 C15.6141273,27.5034545 15.3078,27.5181818 15,27.5181818 C14.6887636,27.5181818 14.3785091,27.5029636 14.0697273,27.4798909 C14.0162182,27.4759636 13.9627091,27.4725273 13.9096909,27.4676182 C13.5984545,27.4401273 13.2886909,27.4033091 12.9818727,27.3532364 C12.9681273,27.3507818 12.9543818,27.3483273 12.9406364,27.3458727 C12.2916545,27.2373818 11.6529818,27.0778364 11.031,26.8692 C11.0118545,26.8628182 10.9922182,26.8559455 10.9730727,26.8495636 C10.6642909,26.7445091 10.3589455,26.6281636 10.059,26.4995455 C10.0570364,26.4985636 10.0545818,26.4975818 10.0526182,26.4966 C9.76887273,26.3743636 9.49052727,26.2388727 9.21561818,26.0960182 C9.17978182,26.0773636 9.14345455,26.0596909 9.10810909,26.0405455 C8.85725455,25.9065273 8.6118,25.7617091 8.36978182,25.6105091 C8.29810909,25.5653455 8.22692727,25.5196909 8.15623636,25.4735455 C7.93336364,25.3277455 7.71343636,25.1760545 7.4994,25.0155273 C7.47730909,24.9988364 7.4562,24.9811636 7.43410909,24.9644727 C7.44981818,24.9556364 7.46552727,24.9468 7.48123636,24.9379636 L11.3628545,22.8206727 C12.0304909,22.4564182 12.4453091,21.7578545 12.4453091,20.9974364 L12.4448182,19.2291818 L12.3319091,19.0927091 C12.3211091,19.0804364 11.2597636,17.7893455 10.8586909,16.0412182 L10.8140182,15.8468182 L10.6466182,15.7383273 C10.4104909,15.5856545 10.2691091,15.3303818 10.2691091,15.0549818 L10.2691091,13.3147091 C10.2691091,13.0864364 10.3658182,12.8738727 10.5425455,12.7143273 L10.7045455,12.5680364 L10.7045455,9.83367273 L10.7001273,9.76936364 C10.6986545,9.75758182 10.5538364,8.57694545 11.3854364,7.629 C12.0952909,6.81998182 13.3117636,6.40909091 15,6.40909091 C16.6818545,6.40909091 17.8944,6.81654545 18.6062182,7.61967273 C19.4368364,8.5578 19.3008545,9.76052727 19.2998727,9.77034545 L19.2954545,12.5690182 L19.4574545,12.7153091 C19.6336909,12.8743636 19.7308909,13.0874182 19.7308909,13.3156909 L19.7308909,15.0559636 C19.7308909,15.4059818 19.4928,15.7236 19.1511273,15.8291455 L18.9071455,15.9042545 L18.8286,16.1472545 C18.5389636,17.0470909 18.1266,17.8782 17.6032909,18.6175091 C17.4746727,18.7991455 17.3494909,18.9601636 17.2419818,19.0833818 L17.1202364,19.2223091 L17.1202364,21.0381818 C17.1202364,21.8295273 17.5600909,22.5413455 18.2679818,22.8948 L22.4245091,24.9728182 C22.4510182,24.9860727 22.4770364,24.9998182 22.5030545,25.0135636 C22.4505273,25.0533273 22.3965273,25.0901455 22.3435091,25.1284364 L22.3435091,25.1284364 Z" id="user"></path>
                </g>
            </g>
        </g>
    </g>
</svg>