<?xml version="1.0" encoding="UTF-8"?>
<svg width="30px" height="30px" viewBox="0 0 30 30" version="1.1" xmlns="http://www.w3.org/2000/svg" xmlns:xlink="http://www.w3.org/1999/xlink">
    <!-- Generator: Sketch 59.1 (86144) - https://sketch.com -->
    <title>Header/Desktop/Search_Focused</title>
    <desc>Created with Sketch.</desc>
    <g id="Page-1" stroke="none" stroke-width="1" fill="none" fill-rule="evenodd">
        <g id="Common-Comps---Desktop" transform="translate(-566.000000, -79.000000)" fill="#FFFFFF">
            <g id="Header" transform="translate(29.000000, 67.000000)">
                <g id="Header/Desktop/Search_Focused" transform="translate(537.000000, 12.000000)">
                    <path d="M26.4856872,23.5873949 L22.0070672,19.1087749 C23.082141,17.4884778 23.7114025,15.5484257 23.7114025,13.4628441 C23.7114025,7.81178901 19.1138992,3.21428571 13.4628441,3.21428571 C7.81178901,3.21428571 3.21428571,7.81178901 3.21428571,13.4628441 C3.21428571,19.1138992 7.81178901,23.7114025 13.4628441,23.7114025 C15.5484257,23.7114025 17.4884778,23.082141 19.1087749,22.0070672 L23.5863701,26.4856872 C23.9870887,26.8864059 24.6358225,26.8864059 25.0355162,26.4856872 L26.4846624,25.0365411 C26.885381,24.6358225 26.8864059,23.9870887 26.4856872,23.5873949 Z M5.26399739,13.4628441 C5.26399739,8.942205 8.942205,5.26399739 13.4628441,5.26399739 C17.9834832,5.26399739 21.6616908,8.942205 21.6616908,13.4628441 C21.6616908,17.9834832 17.9834832,21.6616908 13.4628441,21.6616908 C8.942205,21.6616908 5.26399739,17.9834832 5.26399739,13.4628441 Z" id="search_empty"></path>
                </g>
            </g>
        </g>
    </g>
</svg>